<?xml version="1.0" encoding="utf-8"?>
<svg width="800px" height="800px" viewBox="0 0 24 24" fill="none" xmlns="http://www.w3.org/2000/svg">
<path fill-rule="evenodd" clip-rule="evenodd" d="M4 6C3.44772 6 3 6.44772 3 7V17C3 17.5523 3.44772 18 4 18H20C20.5523 18 21 17.5523 21 17V7C21 6.44772 20.5523 6 20 6H4ZM5 8V16H19V8H5ZM12 9C10.3431 9 9 10.3431 9 12H11C11 11.4477 11.4477 11 12 11C12.5523 11 13 11.4477 13 12C13 12.5523 12.5523 13 12 13H11V15H13V14H15V15C15 15.5523 14.5523 16 14 16H13V17H11V16H10C9.44772 16 9 15.5523 9 15V13C9 12.4477 9.44772 12 10 12H12C12.5523 12 13 11.5523 13 11C13 10.4477 12.5523 10 12 10H10C9.44772 10 9 9.55228 9 9H12Z" fill="#080341"/>
</svg>
